<mxfile host="app.diagrams.net" modified="2021-03-14T03:33:05.632Z" agent="5.0 (Macintosh; Intel Mac OS X 11_0_1) AppleWebKit/537.36 (KHTML, like Gecko) Chrome/89.0.4389.82 Safari/537.36" etag="nczahJOD5n22bvos9pVC" version="14.4.3" type="github">
  <diagram id="aUgEeTDkEXUp3sa-YZVu" name="Page-1">
    <mxGraphModel dx="1186" dy="764" grid="1" gridSize="10" guides="1" tooltips="1" connect="1" arrows="1" fold="1" page="1" pageScale="1" pageWidth="827" pageHeight="1169" math="0" shadow="0">
      <root>
        <mxCell id="0" />
        <mxCell id="1" parent="0" />
        <mxCell id="HjlAa8iH-TzIz_dnbYaD-38" style="edgeStyle=orthogonalEdgeStyle;curved=1;rounded=0;orthogonalLoop=1;jettySize=auto;html=1;entryX=0.069;entryY=1;entryDx=0;entryDy=0;entryPerimeter=0;" edge="1" parent="1" source="HjlAa8iH-TzIz_dnbYaD-1" target="HjlAa8iH-TzIz_dnbYaD-5">
          <mxGeometry relative="1" as="geometry" />
        </mxCell>
        <mxCell id="HjlAa8iH-TzIz_dnbYaD-1" value="&lt;font style=&quot;font-size: 24px&quot;&gt;Rust代码&lt;/font&gt;" style="rounded=0;whiteSpace=wrap;html=1;" vertex="1" parent="1">
          <mxGeometry x="150" y="550" width="210" height="40" as="geometry" />
        </mxCell>
        <mxCell id="HjlAa8iH-TzIz_dnbYaD-39" style="edgeStyle=orthogonalEdgeStyle;curved=1;rounded=0;orthogonalLoop=1;jettySize=auto;html=1;entryX=0.544;entryY=0.975;entryDx=0;entryDy=0;entryPerimeter=0;" edge="1" parent="1" source="HjlAa8iH-TzIz_dnbYaD-3" target="HjlAa8iH-TzIz_dnbYaD-5">
          <mxGeometry relative="1" as="geometry" />
        </mxCell>
        <mxCell id="HjlAa8iH-TzIz_dnbYaD-3" value="&lt;font style=&quot;font-size: 24px&quot;&gt;Typescript代码&lt;/font&gt;" style="rounded=0;whiteSpace=wrap;html=1;" vertex="1" parent="1">
          <mxGeometry x="410" y="550" width="210" height="40" as="geometry" />
        </mxCell>
        <mxCell id="HjlAa8iH-TzIz_dnbYaD-41" style="edgeStyle=orthogonalEdgeStyle;curved=1;rounded=0;orthogonalLoop=1;jettySize=auto;html=1;entryX=0.5;entryY=1;entryDx=0;entryDy=0;" edge="1" parent="1" source="HjlAa8iH-TzIz_dnbYaD-5" target="HjlAa8iH-TzIz_dnbYaD-26">
          <mxGeometry relative="1" as="geometry" />
        </mxCell>
        <mxCell id="HjlAa8iH-TzIz_dnbYaD-42" style="edgeStyle=orthogonalEdgeStyle;curved=1;rounded=0;orthogonalLoop=1;jettySize=auto;html=1;entryX=0.5;entryY=1;entryDx=0;entryDy=0;" edge="1" parent="1" source="HjlAa8iH-TzIz_dnbYaD-5" target="HjlAa8iH-TzIz_dnbYaD-27">
          <mxGeometry relative="1" as="geometry" />
        </mxCell>
        <mxCell id="HjlAa8iH-TzIz_dnbYaD-43" style="edgeStyle=orthogonalEdgeStyle;curved=1;rounded=0;orthogonalLoop=1;jettySize=auto;html=1;" edge="1" parent="1" source="HjlAa8iH-TzIz_dnbYaD-5" target="HjlAa8iH-TzIz_dnbYaD-29">
          <mxGeometry relative="1" as="geometry" />
        </mxCell>
        <mxCell id="HjlAa8iH-TzIz_dnbYaD-5" value="&lt;font style=&quot;font-size: 24px&quot;&gt;Webpack&lt;/font&gt;" style="rounded=0;whiteSpace=wrap;html=1;" vertex="1" parent="1">
          <mxGeometry x="150" y="430" width="720" height="40" as="geometry" />
        </mxCell>
        <mxCell id="HjlAa8iH-TzIz_dnbYaD-46" style="edgeStyle=orthogonalEdgeStyle;curved=1;rounded=0;orthogonalLoop=1;jettySize=auto;html=1;entryX=0.5;entryY=1;entryDx=0;entryDy=0;" edge="1" parent="1" source="HjlAa8iH-TzIz_dnbYaD-14" target="HjlAa8iH-TzIz_dnbYaD-33">
          <mxGeometry relative="1" as="geometry" />
        </mxCell>
        <mxCell id="HjlAa8iH-TzIz_dnbYaD-14" value="&lt;span style=&quot;font-size: 24px&quot;&gt;rustc编译器&lt;/span&gt;" style="rounded=0;whiteSpace=wrap;html=1;" vertex="1" parent="1">
          <mxGeometry x="150" y="220" width="208" height="40" as="geometry" />
        </mxCell>
        <mxCell id="HjlAa8iH-TzIz_dnbYaD-45" style="edgeStyle=orthogonalEdgeStyle;curved=1;rounded=0;orthogonalLoop=1;jettySize=auto;html=1;entryX=0.5;entryY=1;entryDx=0;entryDy=0;" edge="1" parent="1" source="HjlAa8iH-TzIz_dnbYaD-26" target="HjlAa8iH-TzIz_dnbYaD-14">
          <mxGeometry relative="1" as="geometry" />
        </mxCell>
        <mxCell id="HjlAa8iH-TzIz_dnbYaD-26" value="&lt;span style=&quot;font-size: 24px&quot;&gt;WasmPackPlugin&lt;/span&gt;" style="rounded=0;whiteSpace=wrap;html=1;" vertex="1" parent="1">
          <mxGeometry x="150" y="330" width="210" height="40" as="geometry" />
        </mxCell>
        <mxCell id="HjlAa8iH-TzIz_dnbYaD-44" style="edgeStyle=orthogonalEdgeStyle;curved=1;rounded=0;orthogonalLoop=1;jettySize=auto;html=1;entryX=0.5;entryY=1;entryDx=0;entryDy=0;" edge="1" parent="1" source="HjlAa8iH-TzIz_dnbYaD-27" target="HjlAa8iH-TzIz_dnbYaD-28">
          <mxGeometry relative="1" as="geometry" />
        </mxCell>
        <mxCell id="HjlAa8iH-TzIz_dnbYaD-27" value="&lt;span style=&quot;font-size: 24px&quot;&gt;ts-loader&lt;/span&gt;" style="rounded=0;whiteSpace=wrap;html=1;" vertex="1" parent="1">
          <mxGeometry x="405" y="330" width="210" height="40" as="geometry" />
        </mxCell>
        <mxCell id="HjlAa8iH-TzIz_dnbYaD-47" style="edgeStyle=orthogonalEdgeStyle;curved=1;rounded=0;orthogonalLoop=1;jettySize=auto;html=1;entryX=0.5;entryY=1;entryDx=0;entryDy=0;" edge="1" parent="1" source="HjlAa8iH-TzIz_dnbYaD-28" target="HjlAa8iH-TzIz_dnbYaD-32">
          <mxGeometry relative="1" as="geometry" />
        </mxCell>
        <mxCell id="HjlAa8iH-TzIz_dnbYaD-28" value="&lt;span style=&quot;font-size: 24px&quot;&gt;ts编译器&lt;/span&gt;" style="rounded=0;whiteSpace=wrap;html=1;" vertex="1" parent="1">
          <mxGeometry x="405" y="220" width="210" height="40" as="geometry" />
        </mxCell>
        <mxCell id="HjlAa8iH-TzIz_dnbYaD-52" style="edgeStyle=orthogonalEdgeStyle;curved=1;rounded=0;orthogonalLoop=1;jettySize=auto;html=1;entryX=1;entryY=0.5;entryDx=0;entryDy=0;" edge="1" parent="1" source="HjlAa8iH-TzIz_dnbYaD-29" target="HjlAa8iH-TzIz_dnbYaD-48">
          <mxGeometry relative="1" as="geometry" />
        </mxCell>
        <mxCell id="HjlAa8iH-TzIz_dnbYaD-29" value="&lt;span style=&quot;font-size: 24px&quot;&gt;HtmlPakcPlugin&lt;/span&gt;" style="rounded=0;whiteSpace=wrap;html=1;" vertex="1" parent="1">
          <mxGeometry x="660" y="330" width="210" height="40" as="geometry" />
        </mxCell>
        <mxCell id="HjlAa8iH-TzIz_dnbYaD-30" value="" style="endArrow=none;dashed=1;html=1;dashPattern=1 3;strokeWidth=2;" edge="1" parent="1">
          <mxGeometry width="50" height="50" relative="1" as="geometry">
            <mxPoint x="70" y="520" as="sourcePoint" />
            <mxPoint x="900" y="520" as="targetPoint" />
          </mxGeometry>
        </mxCell>
        <mxCell id="HjlAa8iH-TzIz_dnbYaD-31" value="" style="endArrow=none;dashed=1;html=1;dashPattern=1 3;strokeWidth=2;" edge="1" parent="1">
          <mxGeometry width="50" height="50" relative="1" as="geometry">
            <mxPoint x="70" y="290" as="sourcePoint" />
            <mxPoint x="900" y="290" as="targetPoint" />
          </mxGeometry>
        </mxCell>
        <mxCell id="HjlAa8iH-TzIz_dnbYaD-50" style="edgeStyle=orthogonalEdgeStyle;curved=1;rounded=0;orthogonalLoop=1;jettySize=auto;html=1;entryX=0.333;entryY=0;entryDx=0;entryDy=0;entryPerimeter=0;" edge="1" parent="1" source="HjlAa8iH-TzIz_dnbYaD-32" target="HjlAa8iH-TzIz_dnbYaD-29">
          <mxGeometry relative="1" as="geometry" />
        </mxCell>
        <mxCell id="HjlAa8iH-TzIz_dnbYaD-32" value="&lt;span style=&quot;font-size: 24px&quot;&gt;Javascript代码&lt;/span&gt;" style="rounded=0;whiteSpace=wrap;html=1;" vertex="1" parent="1">
          <mxGeometry x="405" y="130" width="210" height="40" as="geometry" />
        </mxCell>
        <mxCell id="HjlAa8iH-TzIz_dnbYaD-49" style="edgeStyle=orthogonalEdgeStyle;curved=1;rounded=0;orthogonalLoop=1;jettySize=auto;html=1;entryX=0.095;entryY=-0.05;entryDx=0;entryDy=0;entryPerimeter=0;" edge="1" parent="1" source="HjlAa8iH-TzIz_dnbYaD-33" target="HjlAa8iH-TzIz_dnbYaD-29">
          <mxGeometry relative="1" as="geometry" />
        </mxCell>
        <mxCell id="HjlAa8iH-TzIz_dnbYaD-33" value="&lt;span style=&quot;font-size: 24px&quot;&gt;Wasm字节码&lt;/span&gt;" style="rounded=0;whiteSpace=wrap;html=1;" vertex="1" parent="1">
          <mxGeometry x="150" y="130" width="210" height="40" as="geometry" />
        </mxCell>
        <mxCell id="HjlAa8iH-TzIz_dnbYaD-34" value="" style="endArrow=none;dashed=1;html=1;dashPattern=1 3;strokeWidth=2;" edge="1" parent="1">
          <mxGeometry width="50" height="50" relative="1" as="geometry">
            <mxPoint x="70" y="190" as="sourcePoint" />
            <mxPoint x="900" y="190" as="targetPoint" />
          </mxGeometry>
        </mxCell>
        <mxCell id="HjlAa8iH-TzIz_dnbYaD-40" style="edgeStyle=orthogonalEdgeStyle;curved=1;rounded=0;orthogonalLoop=1;jettySize=auto;html=1;entryX=0.874;entryY=1.025;entryDx=0;entryDy=0;entryPerimeter=0;" edge="1" parent="1" source="HjlAa8iH-TzIz_dnbYaD-35" target="HjlAa8iH-TzIz_dnbYaD-5">
          <mxGeometry relative="1" as="geometry" />
        </mxCell>
        <mxCell id="HjlAa8iH-TzIz_dnbYaD-35" value="&lt;span style=&quot;font-size: 24px&quot;&gt;HTML模板&lt;/span&gt;" style="rounded=0;whiteSpace=wrap;html=1;" vertex="1" parent="1">
          <mxGeometry x="660" y="550" width="210" height="40" as="geometry" />
        </mxCell>
        <mxCell id="HjlAa8iH-TzIz_dnbYaD-48" value="&lt;span style=&quot;font-size: 24px&quot;&gt;Html生成代码&lt;/span&gt;" style="rounded=0;whiteSpace=wrap;html=1;" vertex="1" parent="1">
          <mxGeometry x="660" y="130" width="210" height="40" as="geometry" />
        </mxCell>
        <mxCell id="HjlAa8iH-TzIz_dnbYaD-55" value="&lt;span style=&quot;font-size: 24px&quot;&gt;生成阶段&lt;/span&gt;" style="text;html=1;align=center;verticalAlign=middle;resizable=0;points=[];autosize=1;" vertex="1" parent="1">
          <mxGeometry x="920" y="140" width="110" height="20" as="geometry" />
        </mxCell>
        <mxCell id="HjlAa8iH-TzIz_dnbYaD-59" style="edgeStyle=orthogonalEdgeStyle;curved=1;rounded=0;orthogonalLoop=1;jettySize=auto;html=1;" edge="1" parent="1">
          <mxGeometry relative="1" as="geometry">
            <mxPoint x="975" y="280" as="targetPoint" />
            <mxPoint x="975" y="360" as="sourcePoint" />
          </mxGeometry>
        </mxCell>
        <mxCell id="HjlAa8iH-TzIz_dnbYaD-63" style="edgeStyle=orthogonalEdgeStyle;curved=1;rounded=0;orthogonalLoop=1;jettySize=auto;html=1;" edge="1" parent="1" source="HjlAa8iH-TzIz_dnbYaD-56">
          <mxGeometry relative="1" as="geometry">
            <mxPoint x="1030" y="151" as="targetPoint" />
            <Array as="points">
              <mxPoint x="1080" y="400" />
              <mxPoint x="1080" y="151" />
            </Array>
          </mxGeometry>
        </mxCell>
        <mxCell id="HjlAa8iH-TzIz_dnbYaD-56" value="&lt;font style=&quot;font-size: 24px&quot;&gt;打包阶段&lt;/font&gt;" style="text;html=1;align=center;verticalAlign=middle;resizable=0;points=[];autosize=1;" vertex="1" parent="1">
          <mxGeometry x="920" y="390" width="110" height="20" as="geometry" />
        </mxCell>
        <mxCell id="HjlAa8iH-TzIz_dnbYaD-57" value="&lt;span style=&quot;font-size: 24px&quot;&gt;编码阶段&lt;/span&gt;" style="text;html=1;align=center;verticalAlign=middle;resizable=0;points=[];autosize=1;" vertex="1" parent="1">
          <mxGeometry x="920" y="550" width="110" height="20" as="geometry" />
        </mxCell>
        <mxCell id="HjlAa8iH-TzIz_dnbYaD-62" style="edgeStyle=orthogonalEdgeStyle;curved=1;rounded=0;orthogonalLoop=1;jettySize=auto;html=1;" edge="1" parent="1" source="HjlAa8iH-TzIz_dnbYaD-58" target="HjlAa8iH-TzIz_dnbYaD-56">
          <mxGeometry relative="1" as="geometry">
            <Array as="points">
              <mxPoint x="900" y="260" />
              <mxPoint x="900" y="394" />
            </Array>
          </mxGeometry>
        </mxCell>
        <mxCell id="HjlAa8iH-TzIz_dnbYaD-58" value="&lt;span style=&quot;font-size: 24px&quot;&gt;编译阶段&lt;/span&gt;" style="text;html=1;align=center;verticalAlign=middle;resizable=0;points=[];autosize=1;" vertex="1" parent="1">
          <mxGeometry x="920" y="240" width="110" height="20" as="geometry" />
        </mxCell>
        <mxCell id="HjlAa8iH-TzIz_dnbYaD-60" style="edgeStyle=orthogonalEdgeStyle;curved=1;rounded=0;orthogonalLoop=1;jettySize=auto;html=1;" edge="1" parent="1">
          <mxGeometry relative="1" as="geometry">
            <mxPoint x="974.5" y="430" as="targetPoint" />
            <mxPoint x="974.5" y="510" as="sourcePoint" />
            <Array as="points">
              <mxPoint x="975" y="460" />
              <mxPoint x="975" y="460" />
            </Array>
          </mxGeometry>
        </mxCell>
      </root>
    </mxGraphModel>
  </diagram>
</mxfile>
